<svg width="60" height="60" viewBox="0 0 60 60" fill="none" xmlns="http://www.w3.org/2000/svg">
<path d="M41.25 0H18.75C8.39625 0 0 8.39625 0 18.75V41.25C0 51.6037 8.39625 60 18.75 60H41.25C51.6037 60 60 51.6037 60 41.25V18.75C60 8.39625 51.6037 0 41.25 0ZM54.375 41.25C54.375 48.4875 48.4875 54.375 41.25 54.375H18.75C11.5125 54.375 5.625 48.4875 5.625 41.25V18.75C5.625 11.5125 11.5125 5.625 18.75 5.625H41.25C48.4875 5.625 54.375 11.5125 54.375 18.75V41.25Z" fill="#AB5D55"/>
<path d="M30 15C21.7162 15 15 21.7162 15 30C15 38.2838 21.7162 45 30 45C38.2838 45 45 38.2838 45 30C45 21.7162 38.2838 15 30 15ZM30 39.375C24.8325 39.375 20.625 35.1675 20.625 30C20.625 24.8288 24.8325 20.625 30 20.625C35.1675 20.625 39.375 24.8288 39.375 30C39.375 35.1675 35.1675 39.375 30 39.375Z" fill="#AB5D55"/>
<path d="M46.125 15.8737C47.2289 15.8737 48.1238 14.9788 48.1238 13.875C48.1238 12.7711 47.2289 11.8762 46.125 11.8762C45.0211 11.8762 44.1263 12.7711 44.1263 13.875C44.1263 14.9788 45.0211 15.8737 46.125 15.8737Z" fill="#AB5D55"/>
</svg>
