<svg width="30" height="30" viewBox="0 0 30 30" fill="none" xmlns="http://www.w3.org/2000/svg">
<path d="M13.1475 0C6.40079 0 2.81282 4.32341 2.81282 9.03762C2.81282 11.2239 4.03445 13.9503 5.98999 14.815C6.28693 14.9488 6.44849 14.8919 6.51464 14.6165C6.57311 14.4073 6.83005 13.3995 6.95468 12.9241C6.99314 12.7718 6.97314 12.6394 6.85005 12.4963C6.20077 11.7455 5.68535 10.3777 5.68535 9.09455C5.68535 5.8066 8.2994 2.61405 12.7474 2.61405C16.5939 2.61405 19.2849 5.1127 19.2849 8.68682C19.2849 12.7256 17.1478 15.5197 14.3706 15.5197C12.8336 15.5197 11.6889 14.3134 12.052 12.821C12.4905 11.0439 13.3506 9.13301 13.3506 7.85137C13.3506 6.70205 12.7013 5.75121 11.375 5.75121C9.81028 5.75121 8.54095 7.30056 8.54095 9.38072C8.54095 10.7024 9.00868 11.5947 9.00868 11.5947C9.00868 11.5947 7.46087 17.8475 7.17316 19.0153C6.68696 20.9924 7.23932 24.1942 7.28701 24.4696C7.31624 24.6219 7.48703 24.6696 7.58242 24.545C7.73474 24.3449 9.60565 21.6755 10.1303 19.7461C10.3211 19.043 11.1042 16.192 11.1042 16.192C11.6197 17.1229 13.1075 17.9029 14.6922 17.9029C19.4064 17.9029 22.8128 13.7595 22.8128 8.61759C22.7959 3.68798 18.5771 0 13.1475 0Z" fill="#AB5D55"/>
</svg>
